<svg xmlns="http://www.w3.org/2000/svg">
  <symbol id="i-amazondynamodb" viewBox="0 0 24 24"><path fill="currentColor" d="M16.606 20.705v-2.371c-1.263 1.082-3.884 1.795-7.066 1.795-3.184 0-5.805-.714-7.068-1.797v2.369c0 1.168 2.903 2.47 7.068 2.47 4.16 0 7.06-1.3 7.066-2.466zm.001-6.765l.817-.005v.005c0 .517-.258.998-.75 1.441.601.54.75 1.071.75 1.449a1661.7 1661.7 0 0 0 0 3.87c0 1.881-3.389 3.3-7.884 3.3-4.471 0-7.846-1.404-7.88-3.27a583.119 583.119 0 0 1-.003-3.909c.001-.375.15-.9.745-1.437-.592-.538-.743-1.062-.746-1.435v-3.892c.002-.377.153-.903.747-1.438-.593-.54-.744-1.062-.747-1.435 0-1.357-.002-2.735.002-3.897C1.674 1.412 5.056 0 9.54 0c2.159 0 4.233.356 5.689.974l-.315.766c-1.36-.58-3.319-.91-5.374-.91-4.165 0-7.067 1.3-7.067 2.47 0 1.168 2.902 2.47 7.067 2.47.115 0 .222 0 .334-.005l.033.828c-.122.006-.245.006-.367.006-3.184 0-5.805-.714-7.068-1.798v2.38c.005.45.45.843.821 1.093 1.116.736 3.114 1.239 5.34 1.342l-.037.829c-2.254-.105-4.23-.59-5.5-1.332-.318.245-.623.573-.623.952 0 1.168 2.902 2.47 7.067 2.47.411 0 .812-.014 1.203-.042l.06.826c-.41.03-.833.045-1.263.045-3.184 0-5.805-.713-7.068-1.797v2.368c.005.462.449.855.821 1.104 1.275.842 3.67 1.366 6.247 1.366h.182v.83H9.54c-2.62 0-4.99-.507-6.444-1.359-.317.245-.623.574-.623.954 0 1.168 2.902 2.47 7.067 2.47 4.159 0 7.058-1.298 7.066-2.465v-.007c0-.377-.303-.705-.62-.948a5.732 5.732 0 0 1-.662.336l-.316-.764c.3-.128.56-.266.776-.412.376-.254.823-.651.823-1.1zm4.377-6.915h-2.717a.406.406 0 0 1-.332-.173.42.42 0 0 1-.055-.375l1.204-3.597h-5.403l-2.583 4.974h2.623c.128 0 .248.06.325.164a.418.418 0 0 1 .069.36l-2.249 8.365zm1.249-.128l-10.89 11.608a.408.408 0 0 1-.498.075.418.418 0 0 1-.192-.471l2.534-9.426h-2.766a.407.407 0 0 1-.349-.2.418.418 0 0 1-.012-.407l3.014-5.804a.408.408 0 0 1 .36-.222h6.22c.132 0 .256.065.332.174a.422.422 0 0 1 .055.374l-1.204 3.598h3.1c.164 0 .31.099.375.251a.422.422 0 0 1-.08.45zM3.085 20.723a8.107 8.107 0 0 0 1.72.72l.233-.794a7.32 7.32 0 0 1-1.546-.645zm1.72-5.984l.233-.795a7.262 7.262 0 0 1-1.546-.646l-.407.72a8.051 8.051 0 0 0 1.72.72zm-1.72-7.427l.407-.719c.418.244.939.462 1.546.646l-.232.794a8.046 8.046 0 0 1-1.72-.72Z"/></symbol>
  <symbol id="i-amazonwebservices" viewBox="0 0 24 24"><path fill="currentColor" d="M6.763 10.036c0 .296.032.535.088.71.064.176.144.368.256.576.04.063.056.127.056.183 0 .08-.048.16-.152.24l-.503.335a.383.383 0 0 1-.208.072c-.08 0-.16-.04-.239-.112a2.47 2.47 0 0 1-.287-.375 6.18 6.18 0 0 1-.248-.471c-.622.734-1.405 1.101-2.347 1.101-.67 0-1.205-.191-1.596-.574-.391-.384-.59-.894-.59-1.533 0-.678.239-1.23.726-1.644.487-.415 1.133-.623 1.955-.623.272 0 .551.024.846.064.296.04.6.104.918.176v-.583c0-.607-.127-1.03-.375-1.277-.255-.248-.686-.367-1.3-.367-.28 0-.568.031-.863.103-.295.072-.583.16-.862.272a2.287 2.287 0 0 1-.28.104.488.488 0 0 1-.127.023c-.112 0-.168-.08-.168-.247v-.391c0-.128.016-.224.056-.28a.597.597 0 0 1 .224-.167c.279-.144.614-.264 1.005-.36a4.84 4.84 0 0 1 1.246-.151c.95 0 1.644.216 2.091.647.439.43.662 1.085.662 1.963v2.586zm-3.24 1.214c.263 0 .534-.048.822-.144.287-.096.543-.271.758-.51.128-.152.224-.32.272-.512.047-.191.08-.423.08-.694v-.335a6.66 6.66 0 0 0-.735-.136 6.02 6.02 0 0 0-.75-.048c-.535 0-.926.104-1.19.32-.263.215-.39.518-.39.917 0 .375.095.655.295.846.191.2.47.296.838.296zm6.41.862c-.144 0-.24-.024-.304-.08-.064-.048-.12-.16-.168-.311L7.586 5.55a1.398 1.398 0 0 1-.072-.32c0-.128.064-.2.191-.2h.783c.151 0 .255.025.31.08.065.048.113.16.16.312l1.342 5.284 1.245-5.284c.04-.16.088-.264.151-.312a.549.549 0 0 1 .32-.08h.638c.152 0 .256.025.32.08.063.048.12.16.151.312l1.261 5.348 1.381-5.348c.048-.16.104-.264.16-.312a.52.52 0 0 1 .311-.08h.743c.127 0 .2.065.2.2 0 .04-.009.08-.017.128a1.137 1.137 0 0 1-.056.2l-1.923 6.17c-.048.16-.104.263-.168.311a.51.51 0 0 1-.303.08h-.687c-.151 0-.255-.024-.32-.08-.063-.056-.119-.16-.15-.32l-1.238-5.148-1.23 5.14c-.04.16-.087.264-.15.32-.065.056-.177.08-.32.08zm10.256.215c-.415 0-.83-.048-1.229-.143-.399-.096-.71-.2-.918-.32-.128-.071-.215-.151-.247-.223a.563.563 0 0 1-.048-.224v-.407c0-.167.064-.247.183-.247.048 0 .096.008.144.024.048.016.12.048.2.08.271.12.566.215.878.279.319.064.63.096.95.096.502 0 .894-.088 1.165-.264a.86.86 0 0 0 .415-.758.777.777 0 0 0-.215-.559c-.144-.151-.416-.287-.807-.415l-1.157-.36c-.583-.183-1.014-.454-1.277-.813a1.902 1.902 0 0 1-.4-1.158c0-.335.073-.63.216-.886.144-.255.335-.479.575-.654.24-.184.51-.32.83-.415.32-.096.655-.136 1.006-.136.175 0 .359.008.535.032.183.024.35.056.518.088.16.04.312.08.455.127.144.048.256.096.336.144a.69.69 0 0 1 .24.2.43.43 0 0 1 .071.263v.375c0 .168-.064.256-.184.256a.83.83 0 0 1-.303-.096 3.652 3.652 0 0 0-1.532-.311c-.455 0-.815.071-1.062.223-.248.152-.375.383-.375.71 0 .224.08.416.24.567.159.152.454.304.877.44l1.134.358c.574.184.99.44 1.237.767.247.327.367.702.367 1.117 0 .343-.072.655-.207.926-.144.272-.336.511-.583.703-.248.2-.543.343-.886.447-.36.111-.734.167-1.142.167zM21.698 16.207c-2.626 1.94-6.442 2.969-9.722 2.969-4.598 0-8.74-1.7-11.87-4.526-.247-.223-.024-.527.272-.351 3.384 1.963 7.559 3.153 11.877 3.153 2.914 0 6.114-.607 9.06-1.852.439-.2.814.287.383.607zM22.792 14.961c-.336-.43-2.22-.207-3.074-.103-.255.032-.295-.192-.063-.36 1.5-1.053 3.967-.75 4.254-.399.287.36-.08 2.826-1.485 4.007-.215.184-.423.088-.327-.151.32-.79 1.03-2.57.695-2.994z"/></symbol>
  <symbol id="i-android" viewBox="0 0 24 24"><path fill="currentColor" d="M18.4395 5.5586c-.675 1.1664-1.352 2.3318-2.0274 3.498-.0366-.0155-.0742-.0286-.1113-.043-1.8249-.6957-3.484-.8-4.42-.787-1.8551.0185-3.3544.4643-4.2597.8203-.084-.1494-1.7526-3.021-2.0215-3.4864a1.1451 1.1451 0 0 0-.1406-.1914c-.3312-.364-.9054-.4859-1.379-.203-.475.282-.7136.9361-.3886 1.5019 1.9466 3.3696-.0966-.2158 1.9473 3.3593.0172.031-.4946.2642-1.3926 1.0177C2.8987 12.176.452 14.772 0 18.9902h24c-.119-1.1108-.3686-2.099-.7461-3.0683-.7438-1.9118-1.8435-3.2928-2.7402-4.1836a12.1048 12.1048 0 0 0-2.1309-1.6875c.6594-1.122 1.312-2.2559 1.9649-3.3848.2077-.3615.1886-.7956-.0079-1.1191a1.1001 1.1001 0 0 0-.8515-.5332c-.5225-.0536-.9392.3128-1.0488.5449zm-.0391 8.461c.3944.5926.324 1.3306-.1563 1.6503-.4799.3197-1.188.0985-1.582-.4941-.3944-.5927-.324-1.3307.1563-1.6504.4727-.315 1.1812-.1086 1.582.4941zM7.207 13.5273c.4803.3197.5506 1.0577.1563 1.6504-.394.5926-1.1038.8138-1.584.4941-.48-.3197-.5503-1.0577-.1563-1.6504.4008-.6021 1.1087-.8106 1.584-.4941z"/></symbol>
  <symbol id="i-anthropic" viewBox="0 0 24 24"><path fill="currentColor" d="M17.3041 3.541h-3.6718l6.696 16.918H24Zm-10.6082 0L0 20.459h3.7442l1.3693-3.5527h7.0052l1.3693 3.5528h3.7442L10.5363 3.5409Zm-.3712 10.2232 2.2914-5.9456 2.2914 5.9456Z"/></symbol>
  <symbol id="i-apple" viewBox="0 0 24 24"><path fill="currentColor" d="M12.152 6.896c-.948 0-2.415-1.078-3.96-1.04-2.04.027-3.91 1.183-4.961 3.014-2.117 3.675-.546 9.103 1.519 12.09 1.013 1.454 2.208 3.09 3.792 3.039 1.52-.065 2.09-.987 3.935-.987 1.831 0 2.35.987 3.96.948 1.637-.026 2.676-1.48 3.676-2.948 1.156-1.688 1.636-3.325 1.662-3.415-.039-.013-3.182-1.221-3.22-4.857-.026-3.04 2.48-4.494 2.597-4.559-1.429-2.09-3.623-2.324-4.39-2.376-2-.156-3.675 1.09-4.61 1.09zM15.53 3.83c.843-1.012 1.4-2.427 1.245-3.83-1.207.052-2.662.805-3.532 1.818-.78.896-1.454 2.338-1.273 3.714 1.338.104 2.715-.688 3.559-1.701"/></symbol>
  <symbol id="i-awslambda" viewBox="0 0 24 24"><path fill="currentColor" d="M4.9855 0c-.2941.0031-.5335.2466-.534.5482L4.446 5.456c0 .1451.06.2835.159.3891a.5322.5322 0 0 0 .3806.1562h3.4282l8.197 17.6805a.5365.5365 0 0 0 .4885.3181h5.811c.2969 0 .5426-.2448.5426-.5482V18.544c0-.3035-.2392-.5482-.5425-.5482h-2.0138L12.7394.3153C12.647.124 12.4564 0 12.2452 0h-7.254Zm.5397 1.0907h6.3678l8.16 17.6804a.5365.5365 0 0 0 .4885.3181h1.8178v3.8173H17.437L9.2402 5.226a.536.536 0 0 0-.4885-.318H5.5223Zm2.0137 8.2366c-.2098.0011-.3937.1193-.4857.3096L.6002 23.2133a.5506.5506 0 0 0 .0313.5282.5334.5334 0 0 0 .4544.25h6.169a.5468.5468 0 0 0 .497-.3096l3.38-7.166a.5405.5405 0 0 0-.0029-.4686L8.036 9.637a.5468.5468 0 0 0-.4942-.3096Zm.0057 1.8036 2.488 5.1522-3.1214 6.6206H1.9465Z"/></symbol>
  <symbol id="i-cloudflare" viewBox="0 0 24 24"><path fill="currentColor" d="M16.5088 16.8447c.1475-.5068.0908-.9707-.1553-1.3154-.2246-.3164-.6045-.499-1.0615-.5205l-8.6592-.1123a.1559.1559 0 0 1-.1333-.0713c-.0283-.042-.0351-.0986-.021-.1553.0278-.084.1123-.1484.2036-.1562l8.7359-.1123c1.0351-.0489 2.1601-.8868 2.5537-1.9136l.499-1.3013c.0215-.0561.0293-.1128.0147-.168-.5625-2.5463-2.835-4.4453-5.5499-4.4453-2.5039 0-4.6284 1.6177-5.3876 3.8614-.4927-.3658-1.1187-.5625-1.794-.499-1.2026.119-2.1665 1.083-2.2861 2.2856-.0283.31-.0069.6128.0635.894C1.5683 13.171 0 14.7754 0 16.752c0 .1748.0142.3515.0352.5273.0141.083.0844.1475.1689.1475h15.9814c.0909 0 .1758-.0645.2032-.1553l.12-.4268zm2.7568-5.5634c-.0771 0-.1611 0-.2383.0112-.0566 0-.1054.0415-.127.0976l-.3378 1.1744c-.1475.5068-.0918.9707.1543 1.3164.2256.3164.6055.498 1.0625.5195l1.8437.1133c.0557 0 .1055.0263.1329.0703.0283.043.0351.1074.0214.1562-.0283.084-.1132.1485-.204.1553l-1.921.1123c-1.041.0488-2.1582.8867-2.5527 1.914l-.1406.3585c-.0283.0713.0215.1416.0986.1416h6.5977c.0771 0 .1474-.0489.169-.126.1122-.4082.1757-.837.1757-1.2803 0-2.6025-2.125-4.727-4.7344-4.727"/></symbol>
  <symbol id="i-elevenlabs" viewBox="0 0 24 24"><path fill="currentColor" d="M4.6035 0v24h4.9317V0zm9.8613 0v24h4.9317V0z"/></symbol>
  <symbol id="i-expo" viewBox="0 0 24 24"><path fill="currentColor" d="M0 20.084c.043.53.23 1.063.718 1.778.58.849 1.576 1.315 2.303.567.49-.505 5.794-9.776 8.35-13.29a.761.761 0 011.248 0c2.556 3.514 7.86 12.785 8.35 13.29.727.748 1.723.282 2.303-.567.57-.835.728-1.42.728-2.046 0-.426-8.26-15.798-9.092-17.078-.8-1.23-1.044-1.498-2.397-1.542h-1.032c-1.353.044-1.597.311-2.398 1.542C8.267 3.991.33 18.758 0 19.77Z"/></symbol>
  <symbol id="i-figma" viewBox="0 0 24 24"><path fill="currentColor" d="M15.852 8.981h-4.588V0h4.588c2.476 0 4.49 2.014 4.49 4.49s-2.014 4.491-4.49 4.491zM12.735 7.51h3.117c1.665 0 3.019-1.355 3.019-3.019s-1.355-3.019-3.019-3.019h-3.117V7.51zm0 1.471H8.148c-2.476 0-4.49-2.014-4.49-4.49S5.672 0 8.148 0h4.588v8.981zm-4.587-7.51c-1.665 0-3.019 1.355-3.019 3.019s1.354 3.02 3.019 3.02h3.117V1.471H8.148zm4.587 15.019H8.148c-2.476 0-4.49-2.014-4.49-4.49s2.014-4.49 4.49-4.49h4.588v8.98zM8.148 8.981c-1.665 0-3.019 1.355-3.019 3.019s1.355 3.019 3.019 3.019h3.117V8.981H8.148zM8.172 24c-2.489 0-4.515-2.014-4.515-4.49s2.014-4.49 4.49-4.49h4.588v4.441c0 2.503-2.047 4.539-4.563 4.539zm-.024-7.51a3.023 3.023 0 0 0-3.019 3.019c0 1.665 1.365 3.019 3.044 3.019 1.705 0 3.093-1.376 3.093-3.068v-2.97H8.148zm7.704 0h-.098c-2.476 0-4.49-2.014-4.49-4.49s2.014-4.49 4.49-4.49h.098c2.476 0 4.49 2.014 4.49 4.49s-2.014 4.49-4.49 4.49zm-.097-7.509c-1.665 0-3.019 1.355-3.019 3.019s1.355 3.019 3.019 3.019h.098c1.665 0 3.019-1.355 3.019-3.019s-1.355-3.019-3.019-3.019h-.098z"/></symbol>
  <symbol id="i-github" viewBox="0 0 24 24"><path fill="currentColor" d="M12 .297c-6.63 0-12 5.373-12 12 0 5.303 3.438 9.8 8.205 11.385.6.113.82-.258.82-.577 0-.285-.01-1.04-.015-2.04-3.338.724-4.042-1.61-4.042-1.61C4.422 18.07 3.633 17.7 3.633 17.7c-1.087-.744.084-.729.084-.729 1.205.084 1.838 1.236 1.838 1.236 1.07 1.835 2.809 1.305 3.495.998.108-.776.417-1.305.76-1.605-2.665-.3-5.466-1.332-5.466-5.93 0-1.31.465-2.38 1.235-3.22-.135-.303-.54-1.523.105-3.176 0 0 1.005-.322 3.3 1.23.96-.267 1.98-.399 3-.405 1.02.006 2.04.138 3 .405 2.28-1.552 3.285-1.23 3.285-1.23.645 1.653.24 2.873.12 3.176.765.84 1.23 1.91 1.23 3.22 0 4.61-2.805 5.625-5.475 5.92.42.36.81 1.096.81 2.22 0 1.606-.015 2.896-.015 3.286 0 .315.21.69.825.57C20.565 22.092 24 17.592 24 12.297c0-6.627-5.373-12-12-12"/></symbol>
  <symbol id="i-googleads" viewBox="0 0 24 24"><path fill="currentColor" d="M3.9998 22.9291C1.7908 22.9291 0 21.1383 0 18.9293s1.7908-3.9998 3.9998-3.9998 3.9998 1.7908 3.9998 3.9998-1.7908 3.9998-3.9998 3.9998zm19.4643-6.0004L15.4632 3.072C14.3586 1.1587 11.9121.5028 9.9988 1.6074S7.4295 5.1585 8.5341 7.0718l8.0009 13.8567c1.1046 1.9133 3.5511 2.5679 5.4644 1.4646 1.9134-1.1046 2.568-3.5511 1.4647-5.4644zM7.5137 4.8438L1.5645 15.1484A4.5 4.5 0 0 1 4 14.4297c2.5597-.0075 4.6248 2.1585 4.4941 4.7148l3.2168-5.5723-3.6094-6.25c-.4499-.7793-.6322-1.6394-.5878-2.4784z"/></symbol>
  <symbol id="i-googleanalytics" viewBox="0 0 24 24"><path fill="currentColor" d="M22.84 2.9982v17.9987c.0086 1.6473-1.3197 2.9897-2.967 2.9984a2.9808 2.9808 0 01-.3677-.0208c-1.528-.226-2.6477-1.5558-2.6105-3.1V3.1204c-.0369-1.5458 1.0856-2.8762 2.6157-3.1 1.6361-.1915 3.1178.9796 3.3093 2.6158.014.1201.0208.241.0202.3619zM4.1326 18.0548c-1.6417 0-2.9726 1.331-2.9726 2.9726C1.16 22.6691 2.4909 24 4.1326 24s2.9726-1.3309 2.9726-2.9726-1.331-2.9726-2.9726-2.9726zm7.8728-9.0098c-.0171 0-.0342 0-.0513.0003-1.6495.0904-2.9293 1.474-2.891 3.1256v7.9846c0 2.167.9535 3.4825 2.3505 3.763 1.6118.3266 3.1832-.7152 3.5098-2.327.04-.1974.06-.3983.0593-.5998v-8.9585c.003-1.6474-1.33-2.9852-2.9773-2.9882z"/></symbol>
  <symbol id="i-googletagmanager" viewBox="0 0 24 24"><path fill="currentColor" d="M12.003 0a3 3 0 0 0-2.121 5.121l6.865 6.865-4.446 4.541 1.745 1.836a3.432 3.432 0 0 1 .7.739l.012.011-.001.002a3.432 3.432 0 0 1 .609 1.953 3.432 3.432 0 0 1-.09.78l7.75-7.647c.031-.029.067-.05.098-.08.023-.023.038-.052.06-.076a2.994 2.994 0 0 0-.06-4.166l-9-9A2.99 2.99 0 0 0 12.003 0zM8.63 2.133L.88 9.809a2.998 2.998 0 0 0 0 4.238l7.7 7.75a3.432 3.432 0 0 1-.077-.729 3.432 3.432 0 0 1 3.431-3.431 3.432 3.432 0 0 1 .826.101l-5.523-5.81 4.371-4.373-2.08-2.08c-.903-.904-1.193-2.183-.898-3.342zm3.304 16.004a2.932 2.932 0 0 0-2.931 2.931A2.932 2.932 0 0 0 11.934 24a2.932 2.932 0 0 0 2.932-2.932 2.932 2.932 0 0 0-2.932-2.931z"/></symbol>
  <symbol id="i-hubspot" viewBox="0 0 24 24"><path fill="currentColor" d="M18.164 7.93V5.084a2.198 2.198 0 001.267-1.978v-.067A2.2 2.2 0 0017.238.845h-.067a2.2 2.2 0 00-2.193 2.193v.067a2.196 2.196 0 001.252 1.973l.013.006v2.852a6.22 6.22 0 00-2.969 1.31l.012-.01-7.828-6.095A2.497 2.497 0 104.3 4.656l-.012.006 7.697 5.991a6.176 6.176 0 00-1.038 3.446c0 1.343.425 2.588 1.147 3.607l-.013-.02-2.342 2.343a1.968 1.968 0 00-.58-.095h-.002a2.033 2.033 0 102.033 2.033 1.978 1.978 0 00-.1-.595l.005.014 2.317-2.317a6.247 6.247 0 104.782-11.134l-.036-.005zm-.964 9.378a3.206 3.206 0 113.215-3.207v.002a3.206 3.206 0 01-3.207 3.207z"/></symbol>
  <symbol id="i-javascript" viewBox="0 0 24 24"><path fill="currentColor" d="M0 0h24v24H0V0zm22.034 18.276c-.175-1.095-.888-2.015-3.003-2.873-.736-.345-1.554-.585-1.797-1.14-.091-.33-.105-.51-.046-.705.15-.646.915-.84 1.515-.66.39.12.75.42.976.9 1.034-.676 1.034-.676 1.755-1.125-.27-.42-.404-.601-.586-.78-.63-.705-1.469-1.065-2.834-1.034l-.705.089c-.676.165-1.32.525-1.71 1.005-1.14 1.291-.811 3.541.569 4.471 1.365 1.02 3.361 1.244 3.616 2.205.24 1.17-.87 1.545-1.966 1.41-.811-.18-1.26-.586-1.755-1.336l-1.83 1.051c.21.48.45.689.81 1.109 1.74 1.756 6.09 1.666 6.871-1.004.029-.09.24-.705.074-1.65l.046.067zm-8.983-7.245h-2.248c0 1.938-.009 3.864-.009 5.805 0 1.232.063 2.363-.138 2.711-.33.689-1.18.601-1.566.48-.396-.196-.597-.466-.83-.855-.063-.105-.11-.196-.127-.196l-1.825 1.125c.305.63.75 1.172 1.324 1.517.855.51 2.004.675 3.207.405.783-.226 1.458-.691 1.811-1.411.51-.93.402-2.07.397-3.346.012-2.054 0-4.109 0-6.179l.004-.056z"/></symbol>
  <symbol id="i-meta" viewBox="0 0 24 24"><path fill="currentColor" d="M6.915 4.03c-1.968 0-3.683 1.28-4.871 3.113C.704 9.208 0 11.883 0 14.449c0 .706.07 1.369.21 1.973a6.624 6.624 0 0 0 .265.86 5.297 5.297 0 0 0 .371.761c.696 1.159 1.818 1.927 3.593 1.927 1.497 0 2.633-.671 3.965-2.444.76-1.012 1.144-1.626 2.663-4.32l.756-1.339.186-.325c.061.1.121.196.183.3l2.152 3.595c.724 1.21 1.665 2.556 2.47 3.314 1.046.987 1.992 1.22 3.06 1.22 1.075 0 1.876-.355 2.455-.843a3.743 3.743 0 0 0 .81-.973c.542-.939.861-2.127.861-3.745 0-2.72-.681-5.357-2.084-7.45-1.282-1.912-2.957-2.93-4.716-2.93-1.047 0-2.088.467-3.053 1.308-.652.57-1.257 1.29-1.82 2.05-.69-.875-1.335-1.547-1.958-2.056-1.182-.966-2.315-1.303-3.454-1.303zm10.16 2.053c1.147 0 2.188.758 2.992 1.999 1.132 1.748 1.647 4.195 1.647 6.4 0 1.548-.368 2.9-1.839 2.9-.58 0-1.027-.23-1.664-1.004-.496-.601-1.343-1.878-2.832-4.358l-.617-1.028a44.908 44.908 0 0 0-1.255-1.98c.07-.109.141-.224.211-.327 1.12-1.667 2.118-2.602 3.358-2.602zm-10.201.553c1.265 0 2.058.791 2.675 1.446.307.327.737.871 1.234 1.579l-1.02 1.566c-.757 1.163-1.882 3.017-2.837 4.338-1.191 1.649-1.81 1.817-2.486 1.817-.524 0-1.038-.237-1.383-.794-.263-.426-.464-1.13-.464-2.046 0-2.221.63-4.535 1.66-6.088.454-.687.964-1.226 1.533-1.533a2.264 2.264 0 0 1 1.088-.285z"/></symbol>
  <symbol id="i-nextdotjs" viewBox="0 0 24 24"><path fill="currentColor" d="M18.665 21.978C16.758 23.255 14.465 24 12 24 5.377 24 0 18.623 0 12S5.377 0 12 0s12 5.377 12 12c0 3.583-1.574 6.801-4.067 9.001L9.219 7.2H7.2v9.596h1.615V9.251l9.85 12.727Zm-3.332-8.533 1.6 2.061V7.2h-1.6v6.245Z"/></symbol>
  <symbol id="i-nodedotjs" viewBox="0 0 24 24"><path fill="currentColor" d="M11.998,24c-0.321,0-0.641-0.084-0.922-0.247l-2.936-1.737c-0.438-0.245-0.224-0.332-0.08-0.383 c0.585-0.203,0.703-0.25,1.328-0.604c0.065-0.037,0.151-0.023,0.218,0.017l2.256,1.339c0.082,0.045,0.197,0.045,0.272,0l8.795-5.076 c0.082-0.047,0.134-0.141,0.134-0.238V6.921c0-0.099-0.053-0.192-0.137-0.242l-8.791-5.072c-0.081-0.047-0.189-0.047-0.271,0 L3.075,6.68C2.99,6.729,2.936,6.825,2.936,6.921v10.15c0,0.097,0.054,0.189,0.139,0.235l2.409,1.392 c1.307,0.654,2.108-0.116,2.108-0.89V7.787c0-0.142,0.114-0.253,0.256-0.253h1.115c0.139,0,0.255,0.112,0.255,0.253v10.021 c0,1.745-0.95,2.745-2.604,2.745c-0.508,0-0.909,0-2.026-0.551L2.28,18.675c-0.57-0.329-0.922-0.945-0.922-1.604V6.921 c0-0.659,0.353-1.275,0.922-1.603l8.795-5.082c0.557-0.315,1.296-0.315,1.848,0l8.794,5.082c0.57,0.329,0.924,0.944,0.924,1.603 v10.15c0,0.659-0.354,1.273-0.924,1.604l-8.794,5.078C12.643,23.916,12.324,24,11.998,24z M19.099,13.993 c0-1.9-1.284-2.406-3.987-2.763c-2.731-0.361-3.009-0.548-3.009-1.187c0-0.528,0.235-1.233,2.258-1.233 c1.807,0,2.473,0.389,2.747,1.607c0.024,0.115,0.129,0.199,0.247,0.199h1.141c0.071,0,0.138-0.031,0.186-0.081 c0.048-0.054,0.074-0.123,0.067-0.196c-0.177-2.098-1.571-3.076-4.388-3.076c-2.508,0-4.004,1.058-4.004,2.833 c0,1.925,1.488,2.457,3.895,2.695c2.88,0.282,3.103,0.703,3.103,1.269c0,0.983-0.789,1.402-2.642,1.402 c-2.327,0-2.839-0.584-3.011-1.742c-0.02-0.124-0.126-0.215-0.253-0.215h-1.137c-0.141,0-0.254,0.112-0.254,0.253 c0,1.482,0.806,3.248,4.655,3.248C17.501,17.007,19.099,15.91,19.099,13.993z"/></symbol>
  <symbol id="i-nvidia" viewBox="0 0 24 24"><path fill="currentColor" d="M8.948 8.798v-1.43a6.7 6.7 0 0 1 .424-.018c3.922-.124 6.493 3.374 6.493 3.374s-2.774 3.851-5.75 3.851c-.398 0-.787-.062-1.158-.185v-4.346c1.528.185 1.837.857 2.747 2.385l2.04-1.714s-1.492-1.952-4-1.952a6.016 6.016 0 0 0-.796.035m0-4.735v2.138l.424-.027c5.45-.185 9.01 4.47 9.01 4.47s-4.08 4.964-8.33 4.964c-.37 0-.733-.035-1.095-.097v1.325c.3.035.61.062.91.062 3.957 0 6.82-2.023 9.593-4.408.459.371 2.34 1.263 2.73 1.652-2.633 2.208-8.772 3.984-12.253 3.984-.335 0-.653-.018-.971-.053v1.864H24V4.063zm0 10.326v1.131c-3.657-.654-4.673-4.46-4.673-4.46s1.758-1.944 4.673-2.262v1.237H8.94c-1.528-.186-2.73 1.245-2.73 1.245s.68 2.412 2.739 3.11M2.456 10.9s2.164-3.197 6.5-3.533V6.201C4.153 6.59 0 10.653 0 10.653s2.35 6.802 8.948 7.42v-1.237c-4.84-.6-6.492-5.936-6.492-5.936z"/></symbol>
  <symbol id="i-posthog" viewBox="0 0 24 24"><path fill="currentColor" d="M9.854 14.5 5 9.647.854 5.5A.5.5 0 0 0 0 5.854V8.44a.5.5 0 0 0 .146.353L5 13.647l.147.146L9.854 18.5l.146.147v-.049c.065.03.134.049.207.049h2.586a.5.5 0 0 0 .353-.854L9.854 14.5zm0-5-4-4a.487.487 0 0 0-.409-.144.515.515 0 0 0-.356.21.493.493 0 0 0-.089.288V8.44a.5.5 0 0 0 .147.353l9 9a.5.5 0 0 0 .853-.354v-2.585a.5.5 0 0 0-.146-.354l-5-5zm1-4a.5.5 0 0 0-.854.354V8.44a.5.5 0 0 0 .147.353l4 4a.5.5 0 0 0 .853-.354V9.854a.5.5 0 0 0-.146-.354l-4-4zm12.647 11.515a3.863 3.863 0 0 1-2.232-1.1l-4.708-4.707a.5.5 0 0 0-.854.354v6.585a.5.5 0 0 0 .5.5H23.5a.5.5 0 0 0 .5-.5v-.6c0-.276-.225-.497-.499-.532zm-5.394.032a.8.8 0 1 1 0-1.6.8.8 0 0 1 0 1.6zM.854 15.5a.5.5 0 0 0-.854.354v2.293a.5.5 0 0 0 .5.5h2.293c.222 0 .39-.135.462-.309a.493.493 0 0 0-.109-.545L.854 15.501zM5 14.647.854 10.5a.5.5 0 0 0-.854.353v2.586a.5.5 0 0 0 .146.353L4.854 18.5l.146.147h2.793a.5.5 0 0 0 .353-.854L5 14.647z"/></symbol>
  <symbol id="i-python" viewBox="0 0 24 24"><path fill="currentColor" d="M14.25.18l.9.2.73.26.59.3.45.32.34.34.25.34.16.33.1.3.04.26.02.2-.01.13V8.5l-.05.63-.13.55-.21.46-.26.38-.3.31-.33.25-.35.19-.35.14-.33.1-.3.07-.26.04-.21.02H8.77l-.69.05-.59.14-.5.22-.41.27-.33.32-.27.35-.2.36-.15.37-.1.35-.07.32-.04.27-.02.21v3.06H3.17l-.21-.03-.28-.07-.32-.12-.35-.18-.36-.26-.36-.36-.35-.46-.32-.59-.28-.73-.21-.88-.14-1.05-.05-1.23.06-1.22.16-1.04.24-.87.32-.71.36-.57.4-.44.42-.33.42-.24.4-.16.36-.1.32-.05.24-.01h.16l.06.01h8.16v-.83H6.18l-.01-2.75-.02-.37.05-.34.11-.31.17-.28.25-.26.31-.23.38-.2.44-.18.51-.15.58-.12.64-.1.71-.06.77-.04.84-.02 1.27.05zm-6.3 1.98l-.23.33-.08.41.08.41.23.34.33.22.41.09.41-.09.33-.22.23-.34.08-.41-.08-.41-.23-.33-.33-.22-.41-.09-.41.09zm13.09 3.95l.28.06.32.12.35.18.36.27.36.35.35.47.32.59.28.73.21.88.14 1.04.05 1.23-.06 1.23-.16 1.04-.24.86-.32.71-.36.57-.4.45-.42.33-.42.24-.4.16-.36.09-.32.05-.24.02-.16-.01h-8.22v.82h5.84l.01 2.76.02.36-.05.34-.11.31-.17.29-.25.25-.31.24-.38.2-.44.17-.51.15-.58.13-.64.09-.71.07-.77.04-.84.01-1.27-.04-1.07-.14-.9-.2-.73-.25-.59-.3-.45-.33-.34-.34-.25-.34-.16-.33-.1-.3-.04-.25-.02-.2.01-.13v-5.34l.05-.64.13-.54.21-.46.26-.38.3-.32.33-.24.35-.2.35-.14.33-.1.3-.06.26-.04.21-.02.13-.01h5.84l.69-.05.59-.14.5-.21.41-.28.33-.32.27-.35.2-.36.15-.36.1-.35.07-.32.04-.28.02-.21V6.07h2.09l.14.01zm-6.47 14.25l-.23.33-.08.41.08.41.23.33.33.23.41.08.41-.08.33-.23.23-.33.08-.41-.08-.41-.23-.33-.33-.23-.41-.08-.41.08z"/></symbol>
  <symbol id="i-pytorch" viewBox="0 0 24 24"><path fill="currentColor" d="M12.005 0L4.952 7.053a9.865 9.865 0 000 14.022 9.866 9.866 0 0014.022 0c3.984-3.9 3.986-10.205.085-14.023l-1.744 1.743c2.904 2.905 2.904 7.634 0 10.538s-7.634 2.904-10.538 0-2.904-7.634 0-10.538l4.647-4.646.582-.665zm3.568 3.899a1.327 1.327 0 00-1.327 1.327 1.327 1.327 0 001.327 1.328A1.327 1.327 0 0016.9 5.226 1.327 1.327 0 0015.573 3.9z"/></symbol>
  <symbol id="i-react" viewBox="0 0 24 24"><path fill="currentColor" d="M14.23 12.004a2.236 2.236 0 0 1-2.235 2.236 2.236 2.236 0 0 1-2.236-2.236 2.236 2.236 0 0 1 2.235-2.236 2.236 2.236 0 0 1 2.236 2.236zm2.648-10.69c-1.346 0-3.107.96-4.888 2.622-1.78-1.653-3.542-2.602-4.887-2.602-.41 0-.783.093-1.106.278-1.375.793-1.683 3.264-.973 6.365C1.98 8.917 0 10.42 0 12.004c0 1.59 1.99 3.097 5.043 4.03-.704 3.113-.39 5.588.988 6.38.32.187.69.275 1.102.275 1.345 0 3.107-.96 4.888-2.624 1.78 1.654 3.542 2.603 4.887 2.603.41 0 .783-.09 1.106-.275 1.374-.792 1.683-3.263.973-6.365C22.02 15.096 24 13.59 24 12.004c0-1.59-1.99-3.097-5.043-4.032.704-3.11.39-5.587-.988-6.38-.318-.184-.688-.277-1.092-.278zm-.005 1.09v.006c.225 0 .406.044.558.127.666.382.955 1.835.73 3.704-.054.46-.142.945-.25 1.44-.96-.236-2.006-.417-3.107-.534-.66-.905-1.345-1.727-2.035-2.447 1.592-1.48 3.087-2.292 4.105-2.295zm-9.77.02c1.012 0 2.514.808 4.11 2.28-.686.72-1.37 1.537-2.02 2.442-1.107.117-2.154.298-3.113.538-.112-.49-.195-.964-.254-1.42-.23-1.868.054-3.32.714-3.707.19-.09.4-.127.563-.132zm4.882 3.05c.455.468.91.992 1.36 1.564-.44-.02-.89-.034-1.345-.034-.46 0-.915.01-1.36.034.44-.572.895-1.096 1.345-1.565zM12 8.1c.74 0 1.477.034 2.202.093.406.582.802 1.203 1.183 1.86.372.64.71 1.29 1.018 1.946-.308.655-.646 1.31-1.013 1.95-.38.66-.773 1.288-1.18 1.87-.728.063-1.466.098-2.21.098-.74 0-1.477-.035-2.202-.093-.406-.582-.802-1.204-1.183-1.86-.372-.64-.71-1.29-1.018-1.946.303-.657.646-1.313 1.013-1.954.38-.66.773-1.286 1.18-1.868.728-.064 1.466-.098 2.21-.098zm-3.635.254c-.24.377-.48.763-.704 1.16-.225.39-.435.782-.635 1.174-.265-.656-.49-1.31-.676-1.947.64-.15 1.315-.283 2.015-.386zm7.26 0c.695.103 1.365.23 2.006.387-.18.632-.405 1.282-.66 1.933-.2-.39-.41-.783-.64-1.174-.225-.392-.465-.774-.705-1.146zm3.063.675c.484.15.944.317 1.375.498 1.732.74 2.852 1.708 2.852 2.476-.005.768-1.125 1.74-2.857 2.475-.42.18-.88.342-1.355.493-.28-.958-.646-1.956-1.1-2.98.45-1.017.81-2.01 1.085-2.964zm-13.395.004c.278.96.645 1.957 1.1 2.98-.45 1.017-.812 2.01-1.086 2.964-.484-.15-.944-.318-1.37-.5-1.732-.737-2.852-1.706-2.852-2.474 0-.768 1.12-1.742 2.852-2.476.42-.18.88-.342 1.356-.494zm11.678 4.28c.265.657.49 1.312.676 1.948-.64.157-1.316.29-2.016.39.24-.375.48-.762.705-1.158.225-.39.435-.788.636-1.18zm-9.945.02c.2.392.41.783.64 1.175.23.39.465.772.705 1.143-.695-.102-1.365-.23-2.006-.386.18-.63.406-1.282.66-1.933zM17.92 16.32c.112.493.2.968.254 1.423.23 1.868-.054 3.32-.714 3.708-.147.09-.338.128-.563.128-1.012 0-2.514-.807-4.11-2.28.686-.72 1.37-1.536 2.02-2.44 1.107-.118 2.154-.3 3.113-.54zm-11.83.01c.96.234 2.006.415 3.107.532.66.905 1.345 1.727 2.035 2.446-1.595 1.483-3.092 2.295-4.11 2.295-.22-.005-.406-.05-.553-.132-.666-.38-.955-1.834-.73-3.703.054-.46.142-.944.25-1.438zm4.56.64c.44.02.89.034 1.345.034.46 0 .915-.01 1.36-.034-.44.572-.895 1.095-1.345 1.565-.455-.47-.91-.993-1.36-1.565z"/></symbol>
  <symbol id="i-stripe" viewBox="0 0 24 24"><path fill="currentColor" d="M13.976 9.15c-2.172-.806-3.356-1.426-3.356-2.409 0-.831.683-1.305 1.901-1.305 2.227 0 4.515.858 6.09 1.631l.89-5.494C18.252.975 15.697 0 12.165 0 9.667 0 7.589.654 6.104 1.872 4.56 3.147 3.757 4.992 3.757 7.218c0 4.039 2.467 5.76 6.476 7.219 2.585.92 3.445 1.574 3.445 2.583 0 .98-.84 1.545-2.354 1.545-1.875 0-4.965-.921-6.99-2.109l-.9 5.555C5.175 22.99 8.385 24 11.714 24c2.641 0 4.843-.624 6.328-1.813 1.664-1.305 2.525-3.236 2.525-5.732 0-4.128-2.524-5.851-6.594-7.305h.003z"/></symbol>
  <symbol id="i-tailwindcss" viewBox="0 0 24 24"><path fill="currentColor" d="M12.001,4.8c-3.2,0-5.2,1.6-6,4.8c1.2-1.6,2.6-2.2,4.2-1.8c0.913,0.228,1.565,0.89,2.288,1.624 C13.666,10.618,15.027,12,18.001,12c3.2,0,5.2-1.6,6-4.8c-1.2,1.6-2.6,2.2-4.2,1.8c-0.913-0.228-1.565-0.89-2.288-1.624 C16.337,6.182,14.976,4.8,12.001,4.8z M6.001,12c-3.2,0-5.2,1.6-6,4.8c1.2-1.6,2.6-2.2,4.2-1.8c0.913,0.228,1.565,0.89,2.288,1.624 c1.177,1.194,2.538,2.576,5.512,2.576c3.2,0,5.2-1.6,6-4.8c-1.2,1.6-2.6,2.2-4.2,1.8c-0.913-0.228-1.565-0.89-2.288-1.624 C10.337,13.382,8.976,12,6.001,12z"/></symbol>
  <symbol id="i-typescript" viewBox="0 0 24 24"><path fill="currentColor" d="M1.125 0C.502 0 0 .502 0 1.125v21.75C0 23.498.502 24 1.125 24h21.75c.623 0 1.125-.502 1.125-1.125V1.125C24 .502 23.498 0 22.875 0zm17.363 9.75c.612 0 1.154.037 1.627.111a6.38 6.38 0 0 1 1.306.34v2.458a3.95 3.95 0 0 0-.643-.361 5.093 5.093 0 0 0-.717-.26 5.453 5.453 0 0 0-1.426-.2c-.3 0-.573.028-.819.086a2.1 2.1 0 0 0-.623.242c-.17.104-.3.229-.393.374a.888.888 0 0 0-.14.49c0 .196.053.373.156.529.104.156.252.304.443.444s.423.276.696.41c.273.135.582.274.926.416.47.197.892.407 1.266.628.374.222.695.473.963.753.268.279.472.598.614.957.142.359.214.776.214 1.253 0 .657-.125 1.21-.373 1.656a3.033 3.033 0 0 1-1.012 1.085 4.38 4.38 0 0 1-1.487.596c-.566.12-1.163.18-1.79.18a9.916 9.916 0 0 1-1.84-.164 5.544 5.544 0 0 1-1.512-.493v-2.63a5.033 5.033 0 0 0 3.237 1.2c.333 0 .624-.03.872-.09.249-.06.456-.144.623-.25.166-.108.29-.234.373-.38a1.023 1.023 0 0 0-.074-1.089 2.12 2.12 0 0 0-.537-.5 5.597 5.597 0 0 0-.807-.444 27.72 27.72 0 0 0-1.007-.436c-.918-.383-1.602-.852-2.053-1.405-.45-.553-.676-1.222-.676-2.005 0-.614.123-1.141.369-1.582.246-.441.58-.804 1.004-1.089a4.494 4.494 0 0 1 1.47-.629 7.536 7.536 0 0 1 1.77-.201zm-15.113.188h9.563v2.166H9.506v9.646H6.789v-9.646H3.375z"/></symbol>
  <symbol id="i-wordpress" viewBox="0 0 24 24"><path fill="currentColor" d="M21.469 6.825c.84 1.537 1.318 3.3 1.318 5.175 0 3.979-2.156 7.456-5.363 9.325l3.295-9.527c.615-1.54.82-2.771.82-3.864 0-.405-.026-.78-.07-1.11m-7.981.105c.647-.03 1.232-.105 1.232-.105.582-.075.514-.93-.067-.899 0 0-1.755.135-2.88.135-1.064 0-2.85-.15-2.85-.15-.585-.03-.661.855-.075.885 0 0 .54.061 1.125.09l1.68 4.605-2.37 7.08L5.354 6.9c.649-.03 1.234-.1 1.234-.1.585-.075.516-.93-.065-.896 0 0-1.746.138-2.874.138-.2 0-.438-.008-.69-.015C4.911 3.15 8.235 1.215 12 1.215c2.809 0 5.365 1.072 7.286 2.833-.046-.003-.091-.009-.141-.009-1.06 0-1.812.923-1.812 1.914 0 .89.513 1.643 1.06 2.531.411.72.89 1.643.89 2.977 0 .915-.354 1.994-.821 3.479l-1.075 3.585-3.9-11.61.001.014zM12 22.784c-1.059 0-2.081-.153-3.048-.437l3.237-9.406 3.315 9.087c.024.053.05.101.078.149-1.12.393-2.325.609-3.582.609M1.211 12c0-1.564.336-3.05.935-4.39L7.29 21.709C3.694 19.96 1.212 16.271 1.211 12M12 0C5.385 0 0 5.385 0 12s5.385 12 12 12 12-5.385 12-12S18.615 0 12 0"/></symbol>
  <symbol id="i-zapier" viewBox="0 0 24 24"><path fill="currentColor" d="M4.157 0A4.151 4.151 0 0 0 0 4.161v15.678A4.151 4.151 0 0 0 4.157 24h15.682A4.152 4.152 0 0 0 24 19.839V4.161A4.152 4.152 0 0 0 19.839 0H4.157Zm10.61 8.761h.03a.577.577 0 0 1 .23.038.585.585 0 0 1 .201.124.63.63 0 0 1 .162.431.612.612 0 0 1-.162.435.58.58 0 0 1-.201.128.58.58 0 0 1-.23.042.529.529 0 0 1-.235-.042.585.585 0 0 1-.332-.328.559.559 0 0 1-.038-.235.613.613 0 0 1 .17-.431.59.59 0 0 1 .405-.162Zm2.853 1.572c.03.004.061.004.095.004.325-.011.646.064.937.219.238.144.431.355.552.609.128.279.189.582.185.888v.193a2 2 0 0 1 0 .219h-2.498c.003.227.075.45.204.642a.78.78 0 0 0 .646.265.714.714 0 0 0 .484-.136.642.642 0 0 0 .23-.318l.915.257a1.398 1.398 0 0 1-.28.537c-.14.159-.321.284-.521.355a2.234 2.234 0 0 1-.836.136 1.923 1.923 0 0 1-1.001-.245 1.618 1.618 0 0 1-.665-.703 2.221 2.221 0 0 1-.227-1.036 1.95 1.95 0 0 1 .48-1.398 1.9 1.9 0 0 1 1.3-.488Zm-9.607.023c.162.004.325.026.48.079.207.065.4.174.563.314.26.302.393.692.366 1.088v2.276H8.53l-.109-.711h-.065c-.064.163-.155.31-.272.439a1.122 1.122 0 0 1-.374.264 1.023 1.023 0 0 1-.453.083 1.334 1.334 0 0 1-.866-.264.965.965 0 0 1-.329-.801.993.993 0 0 1 .076-.431 1.02 1.02 0 0 1 .242-.363 1.478 1.478 0 0 1 1.043-.303h.952v-.181a.696.696 0 0 0-.136-.454.553.553 0 0 0-.438-.154.695.695 0 0 0-.378.086.48.48 0 0 0-.193.254l-.99-.144a1.26 1.26 0 0 1 .257-.563c.14-.174.321-.302.533-.378.261-.091.54-.136.82-.129.053-.003.106-.007.163-.007Zm4.384.007c.174 0 .347.038.506.114.182.083.34.211.458.374.257.423.377.911.351 1.406a2.53 2.53 0 0 1-.355 1.448 1.148 1.148 0 0 1-1.009.517c-.204 0-.401-.045-.582-.136a1.052 1.052 0 0 1-.48-.457 1.298 1.298 0 0 1-.114-.234h-.045l.004 1.784h-1.059v-4.713h.904l.117.805h.057c.068-.208.177-.401.328-.56a1.129 1.129 0 0 1 .843-.344h.076v-.004Zm7.559.084h.903l.113.805h.053a1.37 1.37 0 0 1 .235-.484.813.813 0 0 1 .313-.242.82.82 0 0 1 .39-.076h.234v1.051h-.401a.662.662 0 0 0-.313.008.623.623 0 0 0-.272.155.663.663 0 0 0-.174.26.683.683 0 0 0-.027.314v1.875h-1.054v-3.666Zm-17.515.003h3.262v.896L3.73 13.104l.034.113h1.973l.042.9H2.4v-.9l1.931-1.754-.045-.117H2.441v-.896Zm11.815 0h1.055v3.659h-1.055V10.45Zm3.443.684.019.016a.69.69 0 0 0-.351.045.756.756 0 0 0-.287.204c-.11.155-.174.336-.189.522h1.545c-.034-.526-.257-.787-.74-.787h.003Zm-5.718.163c-.026 0-.057 0-.083.004a.78.78 0 0 0-.31.053.746.746 0 0 0-.257.189 1.016 1.016 0 0 0-.204.695v.064c-.015.257.057.507.204.711a.634.634 0 0 0 .253.196.638.638 0 0 0 .314.061.644.644 0 0 0 .578-.265c.14-.223.204-.48.189-.74a1.216 1.216 0 0 0-.181-.711.677.677 0 0 0-.503-.257Zm-4.509 1.266a.464.464 0 0 0-.268.102.373.373 0 0 0-.114.276c0 .053.008.106.027.155a.375.375 0 0 0 .087.132.576.576 0 0 0 .397.11v.004a.863.863 0 0 0 .563-.182.573.573 0 0 0 .211-.457v-.14h-.903Z"/></symbol>
  <symbol id="i-remotion" viewBox="0 0 24 24"><path d="M7.6 5.2 L18.6 12 L7.6 18.8 Z" fill="none" stroke="currentColor" stroke-width="2.5" stroke-linejoin="round"/></symbol>
</svg>
